<?xml version="1.0" encoding="utf-8"?>
<!-- Generator: Adobe Illustrator 14.0.0, SVG Export Plug-In . SVG Version: 6.00 Build 43363)  -->
<!DOCTYPE svg PUBLIC "-//W3C//DTD SVG 1.1//EN" "http://www.w3.org/Graphics/SVG/1.1/DTD/svg11.dtd">
<svg version="1.1" id="Layer_1" xmlns="http://www.w3.org/2000/svg" xmlns:xlink="http://www.w3.org/1999/xlink" x="0px" y="0px"
	 width="612px" height="792px" viewBox="0 0 612 792" enable-background="new 0 0 612 792" xml:space="preserve">
<g>
	<polygon fill-rule="evenodd" clip-rule="evenodd" fill="#FFFFFF" points="209,300 401.756,300 401.756,492.756 209,492.756 
		209,300 	"/>
	<polygon fill-rule="evenodd" clip-rule="evenodd" fill="#00446C" points="252.951,464.553 255.373,464.553 265.804,476.072 
		265.804,464.553 267.484,464.553 267.484,478.545 265.804,478.545 254.583,466.037 254.583,478.545 252.951,478.545 
		252.951,464.553 	"/>
	<path fill-rule="evenodd" clip-rule="evenodd" fill="#00446C" d="M274.208,473.404l3.758-7.516l3.757,7.516H274.208
		L274.208,473.404z M269.759,478.545h1.88l1.826-3.607h9.049l1.779,3.607h1.928l-7.218-13.992h-2.077L269.759,478.545
		L269.759,478.545z"/>
	<path fill-rule="evenodd" clip-rule="evenodd" fill="#00446C" d="M301.546,472.809c0,5.043-3.954,6.082-7.217,6.082
		s-7.218-1.039-7.218-6.082v-8.256h1.682v8.256c0,3.215,2.077,4.697,5.537,4.697c3.412,0,5.487-1.482,5.487-4.697v-8.256h1.73
		V472.809L301.546,472.809z"/>
	<polygon fill-rule="evenodd" clip-rule="evenodd" fill="#00446C" points="310.345,466.037 303.87,466.037 303.87,464.553 
		318.554,464.553 318.554,466.037 312.076,466.037 312.076,478.545 310.345,478.545 310.345,466.037 	"/>
	<polygon fill-rule="evenodd" clip-rule="evenodd" fill="#00446C" points="321.125,464.553 322.805,464.553 322.805,478.545 
		321.125,478.545 321.125,464.553 	"/>
	<path fill-rule="evenodd" clip-rule="evenodd" fill="#00446C" d="M341.097,474.836c-1.534,2.916-4.104,4.055-7.515,4.055
		c-5.439,0-8.009-3.213-8.009-7.316c0-4.797,3.262-7.365,7.96-7.365c3.016,0,6.081,1.135,7.315,4.004l-1.433,0.691
		c-0.991-2.322-3.166-3.264-5.834-3.264c-4.005,0-6.277,2.176-6.277,6.182c0,3.213,2.174,5.586,6.425,5.586
		c2.769,0,4.695-1.139,5.833-3.313L341.097,474.836L341.097,474.836z"/>
	<path fill-rule="evenodd" clip-rule="evenodd" fill="#00446C" d="M345.792,473.404l3.757-7.516l3.758,7.516H345.792
		L345.792,473.404z M341.343,478.545h1.878l1.83-3.607h9.047l1.779,3.607h1.928l-7.216-13.992h-2.077L341.343,478.545
		L341.343,478.545z"/>
	<path fill-rule="evenodd" clip-rule="evenodd" fill="#00446C" d="M254.227,453.705c20.965-20.217,47.422-50.666,77.122-95.342
		c17.223-25.957,26.456-50.167,26.456-50.167s-11.48,37.937-26.954,70.883c-25.958,54.91-40.434,69.134-40.434,69.134
		L254.227,453.705L254.227,453.705z"/>
	<path fill-rule="evenodd" clip-rule="evenodd" fill="#00446C" d="M343.329,355.368c-0.499,34.443-7.487,54.16-11.73,63.394
		c-10.732,23.463-19.219,27.955-19.219,27.955l-28.203,6.988c0,0,22.963-13.977,37.688-38.438
		C341.083,383.571,343.329,355.368,343.329,355.368L343.329,355.368z"/>
</g>
</svg>
